<?xml version="1.0" encoding="utf-8"?>
<!-- Generator: Adobe Illustrator 18.1.1, SVG Export Plug-In . SVG Version: 6.00 Build 0)  -->
<!DOCTYPE svg PUBLIC "-//W3C//DTD SVG 1.1//EN" "http://www.w3.org/Graphics/SVG/1.1/DTD/svg11.dtd">
<svg version="1.1" id="Layer_1" xmlns="http://www.w3.org/2000/svg" xmlns:xlink="http://www.w3.org/1999/xlink" x="0px" y="0px"
	 viewBox="0 0 34.7 34.7" enable-background="new 0 0 34.7 34.7" xml:space="preserve">
<g>
	<path fill="#222222" d="M17.3,0C7.8,0,0,7.8,0,17.3c0,4.6,1.8,9,5.1,12.3c3.3,3.3,7.6,5.1,12.3,5.1c9.6,0,17.3-7.8,17.3-17.3
		C34.7,7.8,26.9,0,17.3,0z M32.6,17.3c0,8.4-6.9,15.3-15.3,15.3c-4.1,0-7.9-1.6-10.8-4.5c-2.9-2.9-4.5-6.7-4.5-10.8
		c0-8.4,6.9-15.3,15.3-15.3c4.1,0,7.9,1.6,10.8,4.5C31,9.4,32.6,13.3,32.6,17.3z"/>
	<g>
		<rect x="16.4" y="7.5" fill="#222222" width="2" height="20.1"/>
		<polygon fill="#222222" points="11.3,19.3 10.3,13.3 8.6,13.3 7.5,19.3 6.7,13.3 4.8,13.3 6.5,21.7 8.5,21.7 9.4,16.5 10.4,21.7 
			12.4,21.7 14.1,13.3 12.2,13.3 		"/>
		<polygon fill="#222222" points="27.1,19.3 26.1,13.3 24.4,13.3 23.3,19.3 22.5,13.3 20.6,13.3 22.3,21.7 24.3,21.7 25.2,16.5 
			26.3,21.7 28.2,21.7 29.9,13.3 28,13.3 		"/>
	</g>
</g>
</svg>
